{"asset":{"version":"2.0","generator":"babylon.js glTF exporter for 3dsmax 2021 v20210401.5"},"scene":0,"scenes":[{"nodes":[0]}],"nodes":[{"mesh":0,"name":"Heart"}],"meshes":[{"primitives":[{"attributes":{"POSITION":1,"NORMAL":2,"TEXCOORD_0":3},"indices":0,"material":0}],"name":"Heart"}],"accessors":[{"bufferView":0,"componentType":5123,"count":33792,"type":"SCALAR","name":"accessorIndices"},{"bufferView":1,"componentType":5126,"count":33792,"max":[0.269875,0.116108477,0.5070145],"min":[-0.269875,-0.116080537,0.00117602],"type":"VEC3","name":"accessorPositions"},{"bufferView":1,"byteOffset":405504,"componentType":5126,"count":33792,"type":"VEC3","name":"accessorNormals"},{"bufferView":2,"componentType":5126,"count":33792,"type":"VEC2","name":"accessorUVs"}],"bufferViews":[{"buffer":0,"byteLength":67584,"name":"bufferViewScalar"},{"buffer":0,"byteOffset":67584,"byteLength":811008,"byteStride":12,"name":"bufferViewFloatVec3"},{"buffer":0,"byteOffset":878592,"byteLength":270336,"byteStride":8,"name":"bufferViewFloatVec2"}],"buffers":[{"uri":"my_heart.bin","byteLength":1148928}],"materials":[{"pbrMetallicRoughness":{"baseColorFactor":[0.698,0.051,0.051,1.0],"metallicFactor":0.0,"roughnessFactor":0.45},"name":"Heart"}]}